<svg width="282" height="282" viewBox="0 0 282 282" fill="none" xmlns="http://www.w3.org/2000/svg">
<rect width="282" height="282" fill="#C4C4C4"/>
<path d="M92.0774 168.545H76.8388V186H81.5092V172.295H87.407V186H92.0774V168.545ZM95.1776 190.909H99.8821V183.852H99.9503C100.496 185.182 101.757 186.17 103.598 186.17C106.393 186.17 108.746 183.989 108.746 179.455C108.746 174.716 106.223 172.739 103.632 172.739C101.689 172.739 100.462 173.864 99.9503 175.193H99.848V172.909H95.1776V190.909ZM99.7798 179.455C99.7798 177.511 100.564 176.352 101.859 176.352C103.155 176.352 103.905 177.511 103.905 179.455C103.905 181.398 103.155 182.557 101.859 182.557C100.564 182.557 99.7798 181.364 99.7798 179.455ZM117.023 186.239C121.285 186.239 123.808 183.511 123.808 179.489C123.808 175.466 121.285 172.739 117.023 172.739C112.762 172.739 110.239 175.466 110.239 179.489C110.239 183.511 112.762 186.239 117.023 186.239ZM117.058 182.761C115.796 182.761 115.046 181.509 115.046 179.455C115.046 177.401 115.796 176.148 117.058 176.148C118.251 176.148 119.001 177.401 119.001 179.455C119.001 181.509 118.251 182.761 117.058 182.761ZM125.717 186H132.33C136.012 186 137.989 184.773 137.989 182.386C137.989 180.886 136.762 179.352 133.796 179.216C135.944 178.875 137.103 177.784 137.103 176.489C137.103 174.102 134.955 172.909 131.444 172.909H125.717V186ZM130.08 182.693V180.614H132.33C133.089 180.614 133.558 181.014 133.558 181.67C133.558 182.31 133.089 182.693 132.33 182.693H130.08ZM130.08 178.227V176.318H131.444C132.245 176.318 132.739 176.676 132.739 177.273C132.739 177.869 132.305 178.227 131.58 178.227H130.08ZM146.075 186.239C149.706 186.239 152.041 184.5 152.484 181.773H148.189C147.916 182.514 147.141 182.932 146.178 182.932C144.78 182.932 143.962 182.011 143.962 180.75V180.545H152.484V179.455C152.484 175.287 149.928 172.739 145.973 172.739C141.916 172.739 139.325 175.432 139.325 179.489C139.325 183.724 141.882 186.239 146.075 186.239ZM143.962 177.955C143.987 176.821 144.925 176.045 146.075 176.045C147.243 176.045 148.129 176.83 148.155 177.955H143.962ZM154.404 190.909H159.109V183.852H159.177C159.722 185.182 160.984 186.17 162.825 186.17C165.62 186.17 167.972 183.989 167.972 179.455C167.972 174.716 165.45 172.739 162.859 172.739C160.915 172.739 159.688 173.864 159.177 175.193H159.075V172.909H154.404V190.909ZM159.006 179.455C159.006 177.511 159.79 176.352 161.086 176.352C162.381 176.352 163.131 177.511 163.131 179.455C163.131 181.398 162.381 182.557 161.086 182.557C159.79 182.557 159.006 181.364 159.006 179.455ZM174.375 176.455V172.909H169.943V186H176.591C180.324 186 182.608 184.219 182.625 181.295C182.608 178.287 180.324 176.455 176.591 176.455H174.375ZM174.375 179.966H176.591C177.554 179.966 178.244 180.503 178.261 181.261C178.244 181.977 177.554 182.489 176.591 182.489H174.375V179.966ZM182.585 176.42H186.675V186H191.107V176.42H195.266V172.909H182.585V176.42ZM202.935 186.239C206.565 186.239 208.901 184.5 209.344 181.773H205.048C204.776 182.514 204 182.932 203.037 182.932C201.639 182.932 200.821 182.011 200.821 180.75V180.545H209.344V179.455C209.344 175.287 206.787 172.739 202.832 172.739C198.776 172.739 196.185 175.432 196.185 179.489C196.185 183.724 198.741 186.239 202.935 186.239ZM200.821 177.955C200.847 176.821 201.784 176.045 202.935 176.045C204.102 176.045 204.989 176.83 205.014 177.955H200.821ZM27.7148 215.239C31.5927 215.239 33.9705 213.014 34.0217 209.545H29.658C29.5558 210.918 28.8143 211.659 27.783 211.659C26.5472 211.659 25.7376 210.602 25.7376 208.455C25.7376 206.307 26.5472 205.25 27.783 205.25C28.8228 205.25 29.5302 205.991 29.658 207.364H34.0217C33.9961 203.955 31.5671 201.739 27.7148 201.739C23.4535 201.739 20.9308 204.466 20.9308 208.489C20.9308 212.511 23.4535 215.239 27.7148 215.239ZM42.2695 215.239C46.1474 215.239 48.5252 213.014 48.5764 209.545H44.2127C44.1104 210.918 43.369 211.659 42.3377 211.659C41.1019 211.659 40.2923 210.602 40.2923 208.455C40.2923 206.307 41.1019 205.25 42.3377 205.25C43.3775 205.25 44.0849 205.991 44.2127 207.364H48.5764C48.5508 203.955 46.1218 201.739 42.2695 201.739C38.0082 201.739 35.4854 204.466 35.4854 208.489C35.4854 212.511 38.0082 215.239 42.2695 215.239ZM54.9492 205.455V201.909H50.5174V215H57.1651C60.8981 215 63.1822 213.219 63.1992 210.295C63.1822 207.287 60.8981 205.455 57.1651 205.455H54.9492ZM64.1538 215H68.8583V201.909H64.1538V215ZM54.9492 208.966H57.1651C58.1282 208.966 58.8185 209.503 58.8356 210.261C58.8185 210.977 58.1282 211.489 57.1651 211.489H54.9492V208.966ZM70.7248 215H72.0884C74.7816 215 76.6907 213.432 76.9293 208.966L77.1339 205.42H79.3157V215H83.7475V201.909H72.9748L72.7702 207.705C72.668 210.295 72.1225 211.455 71.0998 211.455H70.6907L70.7248 215ZM86.0018 215H90.7063V210.943H91.7631L94.2859 215H99.7404L95.5131 208.523L99.7063 201.909H94.32L91.5245 206.58H90.7063V201.909H86.0018V215ZM104.053 219.892C107.343 219.892 108.885 218.239 109.61 216.091L114.382 201.909H109.439L107.292 210.977H107.155L105.042 201.909H100.132L104.735 215.58L104.632 215.818C104.249 216.491 103.405 216.5 102.246 216.091L101.223 219.432C101.956 219.722 102.971 219.892 104.053 219.892ZM124.934 201.909H120.502V215H124.934V210.159H128.206V215H132.604V201.909H128.206V206.648H124.934V201.909ZM138.493 215.205C140.198 215.205 141.485 214.625 142.277 213.159H142.38V215H146.777V206.034C146.777 203.614 144.485 201.739 140.743 201.739C136.831 201.739 134.905 203.784 134.743 206.17H139.073C139.184 205.361 139.78 204.977 140.675 204.977C141.493 204.977 142.073 205.352 142.073 206.034V206.068C142.073 206.827 141.238 207.065 139.039 207.227C136.337 207.423 134.232 208.514 134.232 211.386C134.232 213.994 135.988 215.205 138.493 215.205ZM140.027 212.239C139.226 212.239 138.664 211.847 138.664 211.114C138.664 210.44 139.141 209.92 140.232 209.75C140.982 209.631 141.613 209.477 142.107 209.273V210.364C142.107 211.557 141.093 212.239 140.027 212.239ZM153.806 215H158.511V210.943H159.568L162.091 215H167.545L163.318 208.523L167.511 201.909H162.125L159.329 206.58H158.511V201.909H153.806V215ZM172.29 215.205C173.995 215.205 175.282 214.625 176.074 213.159H176.176V215H180.574V206.034C180.574 203.614 178.282 201.739 174.54 201.739C170.628 201.739 168.702 203.784 168.54 206.17H172.87C172.98 205.361 173.577 204.977 174.472 204.977C175.29 204.977 175.87 205.352 175.87 206.034V206.068C175.87 206.827 175.034 207.065 172.836 207.227C170.134 207.423 168.029 208.514 168.029 211.386C168.029 213.994 169.784 215.205 172.29 215.205ZM173.824 212.239C173.023 212.239 172.461 211.847 172.461 211.114C172.461 210.44 172.938 209.92 174.029 209.75C174.779 209.631 175.409 209.477 175.904 209.273V210.364C175.904 211.557 174.89 212.239 173.824 212.239ZM182.822 219.909H187.527V212.852H187.595C188.14 214.182 189.402 215.17 191.243 215.17C194.038 215.17 196.39 212.989 196.39 208.455C196.39 203.716 193.868 201.739 191.277 201.739C189.333 201.739 188.106 202.864 187.595 204.193H187.493V201.909H182.822V219.909ZM187.424 208.455C187.424 206.511 188.208 205.352 189.504 205.352C190.799 205.352 191.549 206.511 191.549 208.455C191.549 210.398 190.799 211.557 189.504 211.557C188.208 211.557 187.424 210.364 187.424 208.455ZM197.362 205.42H201.453V215H205.885V205.42H210.044V201.909H197.362V205.42ZM216.223 209V201.909H211.791V215H216.223L219.87 207.875V215H224.302V201.909H219.87L216.223 209ZM231.129 201.909H226.697V215H231.129V210.159H234.402V215H238.799V201.909H234.402V206.648H231.129V201.909ZM241.041 215H245.745V210.943H246.802L249.325 215H254.779L250.552 208.523L254.745 201.909H249.359L246.564 206.58H245.745V201.909H241.041V215ZM259.092 219.892C262.382 219.892 263.924 218.239 264.649 216.091L269.422 201.909H264.478L262.331 210.977H262.194L260.081 201.909H255.172L259.774 215.58L259.672 215.818C259.288 216.491 258.444 216.5 257.285 216.091L256.262 219.432C256.995 219.722 258.01 219.892 259.092 219.892Z" fill="#797373"/>
<circle cx="141" cy="85" r="44" stroke="#797373" stroke-width="6"/>
<line x1="126.765" y1="65.3559" x2="158.765" y2="103.356" stroke="#797373" stroke-width="2"/>
<line x1="156.765" y1="66.6441" x2="124.765" y2="104.644" stroke="#797373" stroke-width="2"/>
</svg>
